<svg xmlns="http://www.w3.org/2000/svg" height="40" viewBox="0 -960 960 960" width="40"><path d="M211.635-93.622q-65.55 0-104.818-51.305-39.268-51.304-22.95-114.333l73.131-276.522q-34.13-23.067-55.065-60.713-20.935-37.646-20.935-83.361 0-70.287 49.733-120.208 49.734-49.922 120.253-49.922H720.71L550.724-510.014H424.551l-12.392 47.42h49.304v163.624h-93.536l-27.754 106.043q-12.13 43.899-47.429 71.602-35.299 27.703-81.109 27.703Zm.103-88.522q14.664 0 26.281-8.877 11.617-8.877 15.53-23.341l80.566-295.652h-91.971l-73.218 273.073q-5.304 21.438 7.764 38.118 13.067 16.679 35.048 16.679ZM772-768.667l-23.434-50.667 141.29-64.434 22.434 51.666L772-768.667Zm117.856 292.059-141.29-63.435L772-591.333l140.29 64.435-22.434 50.29ZM776.088-652.145v-56.087h156.087v56.087H776.088ZM288.535-510.014Zm-37.551-88.522h245.551l81.464-162.928H250.984q-33.925 0-57.882 23.717-23.958 23.717-23.958 57.872t23.958 57.747q23.957 23.592 57.882 23.592ZM378.753-680Z" fill="white"/></svg>