<svg xmlns="http://www.w3.org/2000/svg" height="40" viewBox="0 -960 960 960" width="40"><path d="M436.232-396.232v-87.536h87.536v87.536h-87.536Zm-160 0v-87.536h87.536v87.536h-87.536Zm320 0v-87.536h87.536v87.536h-87.536Zm-160 160v-87.536h87.536v87.536h-87.536Zm-160 0v-87.536h87.536v87.536h-87.536Zm320 0v-87.536h87.536v87.536h-87.536ZM104.173-64.173v-765.364h139.273v-66.667h80.627v66.667h311.854v-66.667h80.777v66.667h139.5v765.364H104.173Zm88.146-88.146h575.362v-414.348H192.319v414.348Zm0-481.014h575.362v-107.682H192.319v107.682Zm0 0v-107.682 107.682Z" fill="white"/></svg>