<svg xmlns="http://www.w3.org/2000/svg" height="40" viewBox="0 -960 960 960" width="40"><path d="M479.923-488.768q-73.048 0-121.065-48.018-48.018-48.018-48.018-121.066T358.858-778.9q48.017-48 121.065-48t121.331 48q48.283 48 48.283 121.048t-48.283 121.066q-48.283 48.018-121.331 48.018Zm-335.75 352.697v-116.88q0-40.871 20.922-72.182 20.921-31.311 54.6-47.65 66.653-30.898 130.847-46.442 64.194-15.543 129.357-15.543 66.246 0 130.043 15.783 63.797 15.782 129.643 46.144 34.647 15.901 55.633 47.168 20.986 31.268 20.986 72.614v116.988H144.173Zm88.146-88.146h495.362v-26.362q0-13.907-8.166-26.224-8.167-12.318-20.501-18.457-58.029-27.783-110.186-39.384-52.158-11.602-109.015-11.602-55.726 0-109.306 11.602-53.579 11.601-110.027 39.325-12.494 6.143-20.328 18.477-7.833 12.335-7.833 26.263v26.362Zm247.598-352.697q34.634 0 57.866-23.167 23.231-23.167 23.231-57.827 0-34.816-23.148-57.831-23.149-23.015-57.783-23.015t-57.866 23.066q-23.231 23.067-23.231 57.586 0 34.753 23.148 57.97 23.149 23.218 57.783 23.218Zm.083-81.014Zm0 433.711Z" fill="white"/></svg>