<?xml version="1.0" encoding="utf-8"?>
<!-- Generator: Adobe Illustrator 23.0.3, SVG Export Plug-In . SVG Version: 6.00 Build 0)  -->
<svg version="1.1" id="Layer_1" xmlns="http://www.w3.org/2000/svg" xmlns:xlink="http://www.w3.org/1999/xlink" x="0px" y="0px"
	 viewBox="0 0 28 28" style="enable-background:new 0 0 28 28;" xml:space="preserve">
<path d="M23,0H5C2.2,0,0,2.2,0,5v18c0,2.8,2.2,5,5,5h18c2.8,0,5-2.2,5-5V5C28,2.2,25.8,0,23,0z M19.8,22
	c-1.4,1-3.2,1.5-5.6,1.5c-2.5,0-4.5-0.6-5.9-1.7c-1.4-1.1-2.1-2.7-2.1-4.7h4.2c0,1.1,0.3,1.9,1,2.3c0.6,0.4,1.6,0.7,2.9,0.7
	c2.1,0,3.1-0.7,3.1-2.1c0-0.6-0.2-1.1-0.7-1.4c-0.4-0.3-1.3-0.6-2.6-0.8l-1.5-0.3c-4-0.7-6.1-2.6-6.1-5.7c0-1.6,0.6-3,1.8-3.9
	c1.2-1,3-1.4,5.2-1.4c2.4,0,4.2,0.5,5.5,1.5c1.3,1,2,2.5,2,4.4h-4.1c-0.1-0.9-0.3-1.5-0.9-1.9c-0.5-0.4-1.4-0.6-2.5-0.6
	c-1.8,0-2.8,0.6-2.8,1.8c0,0.6,0.2,1.1,0.7,1.4c0.4,0.3,1.3,0.6,2.4,0.8l1.5,0.3c2.2,0.4,3.8,1,4.8,1.9s1.5,2.1,1.5,3.6
	C21.8,19.6,21.1,21,19.8,22z"/>
</svg>
