<svg xmlns="http://www.w3.org/2000/svg" height="40" viewBox="0 -960 960 960" width="40"><path d="M280-225.492q-105.527 0-180.017-74.516-74.49-74.517-74.49-180.081 0-105.563 74.49-179.991 74.49-74.428 180.017-74.428 80.783 0 138.363 40.051t84.072 98.819h432.073v231.276h-97.334v131.333H618.667v-131.333H502.352q-26.409 58.768-83.989 98.819-57.58 40.051-138.363 40.051Zm0-81.174q72.536 0 116.392-47.848 43.855-47.848 49.511-90.457h256.605v131.333H756v-131.333h97.334v-70.058H445.986q-5.739-42.609-49.594-90.457Q352.536-653.334 280-653.334q-72 0-122.667 50.667T106.666-480q0 72 50.667 122.667T280-306.666Zm-.093-94.363q33.629 0 56.347-22.907 22.717-22.906 22.717-55.971 0-33.629-22.624-56.347-22.624-22.717-56.254-22.717-33.064 0-56.064 22.624t-23 56.254q0 33.064 22.907 56.064 22.906 23 55.971 23ZM280-480Z" fill="white"/></svg>